<?xml version="1.0" encoding="UTF-8"?>
<svg version="1.1" 
viewBox="0 0 500 500"
xmlns="http://www.w3.org/2000/svg" width="1563" height="1563">
<path d="M0 0 C12.66970387 0.96355353 12.66970387 0.96355353 18 2 C18.33951619 3.56116819 18.67132544 5.12401338 19 6.6875 C19.185625 7.55761719 19.37125 8.42773438 19.5625 9.32421875 C19.98972047 11.93712964 20.07616201 14.35813038 20 17 C20.65742187 17.02578125 21.31484375 17.0515625 21.9921875 17.078125 C34.25059648 17.80897865 49.79112113 19.00233395 59 28 C59.81210937 28.79277344 59.81210937 28.79277344 60.640625 29.6015625 C65.26813876 35.37324175 64.89564086 42.61487547 64.29101562 49.64746094 C62.77803215 61.87825687 58.93836691 73.8653363 55.05615234 85.52075195 C52.82880745 92.23357596 51.04734409 99.002887 50.375 106.0625 C50.189375 108.0115625 50.189375 108.0115625 50 110 C59.45848216 108.22653459 64.62865712 102.07970684 69.9375 94.375 C82.05971362 75.73290752 87.13747826 54.73067046 92.36520386 33.39022827 C93.73465361 27.85003149 95.35359966 22.48800114 97 17 C104.59 17 112.18 17 120 17 C118.87530526 25.99755791 118.87530526 25.99755791 117.84838867 29.64575195 C117.50749458 30.874226 117.50749458 30.874226 117.15971375 32.1275177 C116.9149379 32.98906967 116.67016205 33.85062164 116.41796875 34.73828125 C116.0347924 36.11864815 116.0347924 36.11864815 115.64387512 37.52690125 C114.56230807 41.42274426 113.46791221 45.31494597 112.3737793 49.20727539 C104.78304201 74.57966242 104.78304201 74.57966242 101.875 100.75 C101.87113281 102.13445312 101.87113281 102.13445312 101.8671875 103.546875 C101.89901224 106.13783438 101.89901224 106.13783438 103 109 C106.0418681 109.53232692 108.19206759 109.46880029 110.8984375 107.8984375 C135.10508165 88.47571512 143.3024524 44.8904599 152 17 C159.26 17 166.52 17 174 17 C171.20892007 30.53009221 168.17512987 43.98538174 165.02502441 57.43585205 C160.88880823 75.12307857 156.87800883 92.82601424 153.25 110.625 C153.07956177 111.45882202 152.90912354 112.29264404 152.73352051 113.1517334 C150.83970374 121.02276521 150.83970374 121.02276521 150 129 C158.58 130.65 167.16 132.3 176 134 C175 143 175 143 172 155 C157.645 152.525 157.645 152.525 143 150 C142.34 152.97 141.68 155.94 141 159 C139.82125179 161.76103185 138.63561476 164.35426011 137.25 167 C136.71439453 168.04027344 136.71439453 168.04027344 136.16796875 169.1015625 C129.25296713 182.33672689 120.67897278 193.85685705 106.08203125 199.03515625 C95.14558571 202.0769878 85.26011859 202.28551564 75 197 C67.78148105 192.10690998 63.11486034 185.9606558 61.25390625 177.29296875 C60.07001809 166.60154801 62.92135428 156.97419402 69.125 148.3125 C75.03108506 141.16967063 83.19536823 135.89886649 92 133 C92.99 133 93.98 133 95 133 C95 132.34 95 131.68 95 131 C94.154375 130.835 93.30875 130.67 92.4375 130.5 C86.5317058 127.92292617 82.65427182 122.80296681 80 117 C79.39414062 117.59167969 78.78828125 118.18335938 78.1640625 118.79296875 C69.5561731 126.9108706 61.05740239 132.27552089 49 133 C42.15344686 132.77685308 37.76443915 130.66683824 32.69140625 126.14453125 C28.22974527 120.48759851 27.4712193 115.10258274 27.5625 108.125 C27.57079834 107.29129883 27.57909668 106.45759766 27.58764648 105.59863281 C28.00292835 90.01004532 33.64259306 75.14066653 38.30737305 60.40917969 C39.49417782 56.28109032 40.12659724 52.48201499 40.0625 48.1875 C40.05347656 47.39730469 40.04445313 46.60710938 40.03515625 45.79296875 C40.02355469 45.20128906 40.01195312 44.60960937 40 44 C35.22808828 41.98111427 30.83128526 40.70629836 25.703125 39.8984375 C24.63223633 39.72747559 23.56134766 39.55651367 22.45800781 39.38037109 C21.64686523 39.25484863 20.83572266 39.12932617 20 39 C19.79020508 40.15278442 19.79020508 40.15278442 19.57617188 41.32885742 C14.51854729 68.61116431 7.12015052 94.28706101 -11 116 C-11.68578125 116.82371094 -12.3715625 117.64742187 -13.078125 118.49609375 C-19.49936747 125.54756928 -28.69486416 131.37629956 -38.25 133.0625 C-45.68522707 132.93857955 -52.20844866 131.9834279 -58 127 C-63 121.19098143 -63 121.19098143 -63 117 C-63.89460937 117.74765625 -64.78921875 118.4953125 -65.7109375 119.265625 C-74.70507872 126.64716139 -82.96342621 132.61788655 -95 133 C-101.56298936 132.27077896 -106.85786666 130.42313714 -111.44140625 125.4296875 C-114.65012613 121.35251067 -115.68433349 118.15588638 -116 113 C-116.66 113 -117.32 113 -118 113 C-118.26683594 113.58007812 -118.53367187 114.16015625 -118.80859375 114.7578125 C-123.23646526 123.09092151 -130.91006823 129.06933622 -139.625 132.375 C-147.3580653 133.80704913 -153.21865878 132.91038161 -159.88671875 128.8515625 C-166.56112592 123.8421376 -169.61698398 116.04475308 -171 108 C-172.02313958 93.63512026 -171.24798069 79.77522505 -167 66 C-166.78569336 65.30438965 -166.57138672 64.6087793 -166.35058594 63.89208984 C-160.38823573 45.23696355 -148.79435431 26.53293188 -131 17.1875 C-119.15309552 11.7389993 -106.53328467 11.481885 -94 15 C-93.67 14.34 -93.34 13.68 -93 13 C-86.4 13 -79.8 13 -73 13 C-75.23911098 23.0759994 -75.23911098 23.0759994 -76.8828125 27.66015625 C-77.24173584 28.6855249 -77.60065918 29.71089355 -77.97045898 30.76733398 C-78.54195679 32.39844116 -78.54195679 32.39844116 -79.125 34.0625 C-82.72194567 44.58156451 -85.75972703 55.15036556 -88.4375 65.9375 C-88.68805145 66.93814987 -88.68805145 66.93814987 -88.94366455 67.95901489 C-91.77490605 79.32592129 -94.40258494 90.48466895 -94.125 102.25 C-94.11597656 103.00667969 -94.10695313 103.76335937 -94.09765625 104.54296875 C-94.07462896 106.36212467 -94.03879145 108.18111194 -94 110 C-82.75138318 107.22189124 -77.33735989 99.63912457 -71.3359375 90.24609375 C-70.54350106 88.8384039 -69.76693912 87.42174211 -69 86 C-68.22305786 84.60116577 -68.22305786 84.60116577 -67.43041992 83.17407227 C-60.9391408 70.50956209 -57.97662499 56.8025342 -54.5625 43.0625 C-53.92128996 40.52895024 -53.27872239 37.99574364 -52.63476562 35.46289062 C-51.07162265 29.31291883 -49.53656321 23.15690862 -48 17 C-40.08 17 -32.16 17 -24 17 C-26.00678815 25.11837023 -28.03524547 33.22425983 -30.21875 41.296875 C-38.95068997 71.69863073 -38.95068997 71.69863073 -42.0625 103 C-42.05573242 104.01900391 -42.05573242 104.01900391 -42.04882812 105.05859375 C-42.0372283 106.70576874 -42.01930199 108.35289726 -42 110 C-32.10077172 107.80017149 -26.91224045 102.14198001 -21.4375 93.875 C-9.54945581 74.17867224 -2.38960933 53.04834786 -1 30 C-1.66 30 -2.32 30 -3 30 C-7.41097471 23.93490978 -8.16988606 18.41255534 -7 11 C-5.6961696 7.98819988 -4.03461619 5.558684 -2 3 C-1.34 2.01 -0.68 1.02 0 0 Z M-131.8359375 46.2421875 C-142.81243223 60.23028367 -148.17305108 78.44927155 -148.1875 96.0625 C-148.19974609 96.85205078 -148.21199219 97.64160156 -148.22460938 98.45507812 C-148.23544226 102.76295628 -147.99912935 106.07285658 -146 110 C-140.46737885 109.36770044 -137.42933361 106.7232909 -133.9296875 102.50390625 C-122.14971243 85.64017767 -114.05752173 67.24652912 -107 48 C-106.62343262 46.99227539 -106.24686523 45.98455078 -105.85888672 44.94628906 C-105.49166504 43.9559668 -105.12444336 42.96564453 -104.74609375 41.9453125 C-104.41150146 41.04570801 -104.07690918 40.14610352 -103.73217773 39.21923828 C-102.89556283 37.07293324 -102.89556283 37.07293324 -103 35 C-115.30972091 34.04821746 -123.37265584 37.18079407 -131.8359375 46.2421875 Z M122.875 126 C122.25625 126.66 121.6375 127.32 121 128 C122.98 128 124.96 128 127 128 C127 126.68 127 125.36 127 124 C124.75637427 123.7715451 124.75637427 123.7715451 122.875 126 Z M89.625 158.3125 C85.84882252 162.17858647 84.30809142 165.79934702 83.5625 171.125 C84.15013679 174.98661318 84.97896898 176.49475477 88 179 C93.45994392 180.23358262 98.3288795 179.05659744 103.1015625 176.29296875 C111.86269853 170.3260222 115.95134561 161.54851477 120 152 C120 151.01 120 150.02 120 149 C109.640964 149 97.95777984 152.1438159 89.625 158.3125 Z " fill="#FE8EA3" transform="translate(582,858)"/>
<path d="M0 0 C7.02162134 7.13366849 6.77623457 15.6847073 6.78344727 25.02514648 C6.65528304 33.9746496 5.12022746 41.97433994 2.46875 50.4921875 C2.11466064 51.64920166 2.11466064 51.64920166 1.75341797 52.82958984 C-8.82464364 86.69166328 -27.46182554 117.42276304 -52.53125 142.4921875 C-54.14791472 153.6408754 -51.43915961 166.96330103 -45.53125 176.4921875 C-42.42171621 178.0469544 -39.96858239 177.77863187 -36.53125 177.4921875 C-20.77100505 169.95467905 -13.04281958 149.81764626 -7.5 134.37890625 C-5.25548908 127.83727918 -3.31403035 121.21879635 -1.46875 114.5546875 C-1.15736084 113.44706055 -0.84597168 112.33943359 -0.52514648 111.19824219 C-0.24743408 110.1518457 0.03027832 109.10544922 0.31640625 108.02734375 C0.56398682 107.1031665 0.81156738 106.17898926 1.06665039 105.22680664 C1.53056357 102.07180267 1.12023451 99.59893392 0.46875 96.4921875 C-0.58141774 86.28317983 2.00604485 75.57056894 8.46875 67.4921875 C13.02190948 68.11030284 16.75334767 69.95984643 20.78125 72.0546875 C21.42642578 72.38404297 22.07160156 72.71339844 22.73632812 73.05273438 C24.31660228 73.86043005 25.89307105 74.67556363 27.46875 75.4921875 C27.31277344 76.56597656 27.15679688 77.63976562 26.99609375 78.74609375 C26.79897798 80.18222296 26.60239159 81.61842491 26.40625 83.0546875 C26.2505957 84.11139648 26.2505957 84.11139648 26.09179688 85.18945312 C25.36930979 90.59564962 24.99072867 95.76095715 27.67578125 100.72265625 C31.33154522 105.17895247 35.22135988 109.2791495 39.34375 113.3046875 C51.35686903 125.05339039 61.04514288 138.29446905 61.84375 155.5546875 C61.59509822 166.60415118 58.77133544 178.02051065 51.46875 186.4921875 C50.88222656 187.19859375 50.29570313 187.905 49.69140625 188.6328125 C42.42020511 196.66235977 33.4076411 200.02951629 22.79296875 201.3359375 C10.90982453 201.89448717 -1.22427352 198.54286216 -10.28125 190.6796875 C-11.37958247 189.63269984 -12.4692706 188.57603118 -13.53125 187.4921875 C-14.05332031 188.01167969 -14.57539062 188.53117188 -15.11328125 189.06640625 C-22.24598012 195.82435737 -30.22289098 200.98072584 -40.28515625 201.5546875 C-48.61713348 201.32284118 -55.28503367 199.13468031 -61.53125 193.4921875 C-66.15904563 188.02297448 -69.53251663 181.96945157 -72.53125 175.4921875 C-72.90636719 176.00007812 -73.28148437 176.50796875 -73.66796875 177.03125 C-74.74050156 178.47390119 -75.82043094 179.91107207 -76.90625 181.34375 C-78.19444972 183.04689866 -79.46059857 184.76672268 -80.71875 186.4921875 C-86.0124285 192.72506702 -94.3098302 199.10838417 -102.53125 200.4921875 C-111.55687058 201.17446983 -118.91621387 201.44793275 -126.15625 195.2421875 C-128.83779286 192.13724314 -130.61534575 189.11111775 -132.53125 185.4921875 C-132.94632813 185.98847656 -133.36140625 186.48476563 -133.7890625 186.99609375 C-140.35352019 194.23347702 -149.50730838 200.0705928 -159.34375 201.5546875 C-166.01207609 201.78974909 -172.532682 200.45063697 -177.890625 196.33203125 C-181.43099635 192.36175766 -183.42562688 187.32817906 -185.53125 182.4921875 C-186.088125 183.14445313 -186.645 183.79671875 -187.21875 184.46875 C-195.27751199 193.69821053 -202.51858904 200.54348635 -215.09375 201.8671875 C-222.24915738 201.0865976 -228.16795792 198.54821735 -232.83984375 192.9140625 C-241.76002221 180.31464129 -240.84175798 162.63221756 -238.40625 148.0546875 C-234.10551514 125.23602134 -224.53285528 103.62592073 -205.46875 89.4921875 C-194.51083939 82.32672761 -183.39696792 80.43873979 -170.53125 81.4921875 C-167.26964246 82.21049287 -164.61258015 83.17161743 -161.53125 84.4921875 C-161.03625 83.0071875 -161.03625 83.0071875 -160.53125 81.4921875 C-153.93125 81.4921875 -147.33125 81.4921875 -140.53125 81.4921875 C-141.40007812 84.1734375 -142.26890625 86.8546875 -143.1640625 89.6171875 C-158.11409522 133.10826974 -158.11409522 133.10826974 -162.53125 178.4921875 C-161.09028414 178.06624162 -159.65356288 177.62592117 -158.21875 177.1796875 C-157.41824219 176.93605469 -156.61773438 176.69242188 -155.79296875 176.44140625 C-153.41718789 175.44431688 -152.28527699 174.32851488 -150.53125 172.4921875 C-149.87125 172.4921875 -149.21125 172.4921875 -148.53125 172.4921875 C-148.26570313 171.91984375 -148.00015625 171.3475 -147.7265625 170.7578125 C-146.47368895 168.38308485 -145.01899891 166.38751861 -143.40625 164.2421875 C-140.37775569 159.93920183 -137.80264275 155.54066958 -135.40625 150.8671875 C-135.09413574 150.27776367 -134.78202148 149.68833984 -134.46044922 149.08105469 C-127.73123518 135.5945736 -124.8175907 120.1019072 -121.28125 105.5546875 C-120.61427191 102.81868176 -119.94580241 100.08307762 -119.27301025 97.34849548 C-118.85880757 95.66443037 -118.44799273 93.97952754 -118.04095459 92.29371643 C-116.64360398 86.60454148 -116.64360398 86.60454148 -115.53125 85.4921875 C-113.82352642 85.40504919 -112.11226351 85.38518743 -110.40234375 85.39453125 C-108.85063477 85.39936523 -108.85063477 85.39936523 -107.26757812 85.40429688 C-106.17896484 85.41267578 -105.09035156 85.42105469 -103.96875 85.4296875 C-102.3300293 85.43645508 -102.3300293 85.43645508 -100.65820312 85.44335938 C-97.94916505 85.45518924 -95.24023401 85.47167207 -92.53125 85.4921875 C-94.09574707 94.15373273 -96.37530659 102.57065278 -98.67169189 111.05892944 C-107.67936923 143.78092698 -107.67936923 143.78092698 -109.53125 177.4921875 C-101.38484019 176.60208096 -98.46428259 174.10995381 -93.40625 167.87109375 C-85.49685813 157.09180101 -77.05326749 143.24072682 -75.98828125 129.7265625 C-72.46058733 88.30151772 -65.59686864 31.87669841 -33.03125 2.1171875 C-23.11950486 -5.85284902 -10.59294955 -8.4443796 0 0 Z M-19.78125 19.4296875 C-25.7372306 25.66238642 -29.66090851 33.2367193 -32.96875 41.1171875 C-33.35071533 42.0239624 -33.73268066 42.9307373 -34.1262207 43.86499023 C-40.36112735 59.0433146 -44.52070004 74.67277354 -48.03125 90.6796875 C-48.29897217 91.89213135 -48.56669434 93.1045752 -48.8425293 94.35375977 C-49.08011963 95.48612061 -49.31770996 96.61848145 -49.5625 97.78515625 C-49.77455078 98.7908667 -49.98660156 99.79657715 -50.20507812 100.83276367 C-50.52297561 103.42472276 -50.36628256 105.04418918 -49.53125 107.4921875 C-32.56316162 82.56376137 -13.00773288 48.72772158 -15.53125 17.4921875 C-17.7735343 17.27467979 -17.7735343 17.27467979 -19.78125 19.4296875 Z M-198.07421875 112.71484375 C-211.00333997 127.32947839 -217.32989928 148.85783074 -216.76953125 168.17578125 C-216.4296209 171.48015567 -215.64301015 174.36536209 -214.53125 177.4921875 C-212.72058873 178.23636806 -212.72058873 178.23636806 -210.53125 178.4921875 C-202.53119241 174.36367812 -197.91885581 164.98587069 -193.53125 157.4921875 C-192.88414063 156.40550781 -192.23703125 155.31882812 -191.5703125 154.19921875 C-177.65292421 129.97566852 -177.65292421 129.97566852 -171.53125 103.4921875 C-183.05629501 102.9201724 -189.5849614 104.66895775 -198.07421875 112.71484375 Z M17.46875 123.4921875 C17.23800781 124.22107178 17.00726562 124.94995605 16.76953125 125.70092773 C8.60216017 151.31879102 8.60216017 151.31879102 2.85742188 162.46459961 C1.1252607 165.8514352 0.46875 167.57940774 0.46875 171.4921875 C1.76851362 172.99134434 1.76851362 172.99134434 3.59375 174.1171875 C4.17382812 174.52195312 4.75390625 174.92671875 5.3515625 175.34375 C12.1102133 179.00988161 18.94299999 179.26872986 26.46875 178.4921875 C31.81250236 175.96093638 35.39863807 172.25276609 37.546875 166.7109375 C39.72986593 159.08896917 39.45642748 151.66725251 36.15625 144.4296875 C31.60827572 136.26721338 25.00215905 128.99967978 17.46875 123.4921875 Z " fill="#FE8EA3" transform="translate(1228.53125,789.5078125)"/>
<path d="M0 0 C0.99 0.33 1.98 0.66 3 1 C4.09612453 3.59139805 4.98388573 6.07181536 5.8125 8.75 C6.06894287 9.5455127 6.32538574 10.34102539 6.58959961 11.16064453 C8.84226181 18.24475564 10.81916568 25.40467561 12.81079102 32.56542969 C14.72050084 39.31210497 17.09988254 45.61133544 20 52 C20.67462582 53.66346092 21.3436339 55.32924994 22 57 C22.18175781 55.9378125 22.36351562 54.875625 22.55078125 53.78125 C24.74146585 41.30290973 27.85524591 32.64861979 35 22 C37.29086807 22.91634723 38.71908582 23.60634434 40.16796875 25.63671875 C41.55658583 29.5809128 42.02156294 33.70676676 42.59179688 37.83398438 C43.68623458 44.79102406 46.00637276 51.31060918 48.29690552 57.94540405 C50.21579694 63.55282472 52.02490993 69.19780386 53.85717773 74.83398438 C54.32756452 76.27852281 54.7995715 77.72253465 55.27319336 79.16601562 C63.8719642 105.37968672 63.8719642 105.37968672 65.25 117.4375 C65.47429687 119.32275391 65.47429687 119.32275391 65.703125 121.24609375 C65.85007812 122.60927734 65.85007812 122.60927734 66 124 C66.92039062 122.83404297 66.92039062 122.83404297 67.859375 121.64453125 C69.78792154 119.26200204 71.79604077 117.1252464 74 115 C73.21625 114.278125 72.4325 113.55625 71.625 112.8125 C68.47664334 109.43926072 66.94602257 107.1590973 67.0625 102.5 C68.71652575 98.08926467 71.86626595 95.76461133 75.6875 93.1875 C80.61792437 91.41998938 86.01580637 90.66702015 90.94140625 92.8671875 C92.78350777 94.08341838 94.43733919 95.43733919 96 97 C96.125 100.5 96.125 100.5 96 104 C95.67 104.33 95.34 104.66 95 105 C95.61746094 105.17015625 96.23492188 105.3403125 96.87109375 105.515625 C113.21309332 110.1918745 113.21309332 110.1918745 119 117 C119.53625 117.61875 120.0725 118.2375 120.625 118.875 C122 121 122 121 123.4375 124.4375 C124.80898891 128.00903352 124.80898891 128.00903352 127.125 130.5625 C129.40350299 133.52455389 129.92391628 135.27189763 130 139 C128.5625 142.375 128.5625 142.375 127 145 C126.01 144.34 125.02 143.68 124 143 C123.62875 143.433125 123.2575 143.86625 122.875 144.3125 C121 146 121 146 117.875 147.4375 C114.92234606 148.68038885 114.92234606 148.68038885 114.0625 150.9375 C113.87152657 153.0098051 113.87152657 153.0098051 114.6875 154.875 C115 157 115 157 113.25 160.25 C112.13625 161.61125 112.13625 161.61125 111 163 C110.01 163 109.02 163 108 163 C107.62875 163.9590625 107.62875 163.9590625 107.25 164.9375 C106 167 106 167 104.140625 167.81640625 C102 168 102 168 100.21875 166.75 C99.07291667 165.58333333 97.92708333 164.41666667 96.78125 163.25 C95.08526279 161.81659505 95.08526279 161.81659505 92.96875 161.9375 C89.98957065 163.54531108 89.28936266 165.96999775 88 169 C99.55773455 176.48135515 111.62920968 183.95015571 126 182 C128.54353321 181.36732283 131.03740869 180.61970609 133.546875 179.86328125 C138.17918864 178.70520284 142.83681223 178.03579357 147.5625 177.375 C148.43688721 177.25213623 149.31127441 177.12927246 150.2121582 177.00268555 C166.97762967 174.72212877 166.97762967 174.72212877 172.1875 175.5 C180.32766093 176.56756209 185.23902537 174.04977843 192 170 C193.53861035 169.14034019 195.08024319 168.28606539 196.625 167.4375 C199.41927418 165.89110659 202.18460901 164.30617711 204.9375 162.6875 C208 161 208 161 210 161 C210 160.34 210 159.68 210 159 C213.465 157.02 213.465 157.02 217 155 C213.67913229 152.22999175 213.67913229 152.22999175 210 150 C210 149.01 210 148.02 210 147 C215.94 146.01 215.94 146.01 222 145 C222 141.37 222 137.74 222 134 C223.32 133.67 224.64 133.34 226 133 C227.98 136.3 229.96 139.6 232 143 C233.216875 142.67 234.43375 142.34 235.6875 142 C238.87210604 141.19677787 241.6972843 140.79358027 245 141 C245 145 245 145 242.5625 147.5 C241.716875 148.325 240.87125 149.15 240 150 C239.03807235 151.86843058 239.03807235 151.86843058 239 154 C240.17939922 156.21765724 240.17939922 156.21765724 241.9375 158.25 C242.50339844 158.95640625 243.06929687 159.6628125 243.65234375 160.390625 C244.09707031 160.92171875 244.54179688 161.4528125 245 162 C244.34 163.32 243.68 164.64 243 166 C242.319375 165.54625 241.63875 165.0925 240.9375 164.625 C237.69564814 162.83163514 234.5796559 161.91246131 231 161 C230.68546875 161.5053125 230.3709375 162.010625 230.046875 162.53125 C229.61890625 163.1809375 229.1909375 163.830625 228.75 164.5 C228.33234375 165.1496875 227.9146875 165.799375 227.484375 166.46875 C226.99453125 166.9740625 226.5046875 167.479375 226 168 C224.68 168 223.36 168 222 168 C221.67 165.69 221.34 163.38 221 161 C215.74176917 163.86008443 210.485059 166.72266159 205.25 169.625 C204.53070312 170.02332031 203.81140625 170.42164063 203.0703125 170.83203125 C201.70134665 171.60433463 200.34160409 172.39324425 198.9921875 173.19921875 C194.29473684 176 194.29473684 176 191 176 C191 176.66 191 177.32 191 178 C189.56705502 178.84114171 188.12845595 179.67265687 186.6875 180.5 C185.88699219 180.9640625 185.08648438 181.428125 184.26171875 181.90625 C182 183 182 183 179 183 C178.62875 184.175625 178.62875 184.175625 178.25 185.375 C176.80253303 188.41468063 176.06085181 188.82967431 173 190 C172.319375 190.391875 171.63875 190.78375 170.9375 191.1875 C169 192 169 192 166 191 C166 191.66 166 192.32 166 193 C160.375 195.125 160.375 195.125 157 194 C157.51032394 190.22360282 158.20766929 188.55277419 161 186 C153.9951082 185.62249086 149.05260335 186.6618408 142.625 189.375 C141.83222656 189.69210937 141.03945313 190.00921875 140.22265625 190.3359375 C136.87953805 191.69354895 134.01895354 192.98736431 131 195 C122.46594541 196.56276477 115.16727279 195.75546339 107 193 C104.77271532 192.30642721 102.54351359 191.61898267 100.3125 190.9375 C97.19723001 189.98531252 94.09038572 189.03012857 91 188 C91.61875 189.546875 91.61875 189.546875 92.25 191.125 C93 195 93 195 91.8125 197.9375 C87.7642764 203.10247493 81.1938191 207.93539363 75 210 C74.67 210.66 74.34 211.32 74 212 C73.67 212.66 73.34 213.32 73 214 C72.01 214.33 71.02 214.66 70 215 C69.566875 215.86625 69.566875 215.86625 69.125 216.75 C67.60616932 219.78766137 65.45156267 221.6624635 63 224 C59.56836143 227.18062078 59.56836143 227.18062078 57 231 C56.01 231 55.02 231 54 231 C53.7525 231.70125 53.505 232.4025 53.25 233.125 C51.82819762 236.39514548 50.12753712 239.141122 48 242 C47.34 242 46.68 242 46 242 C45.58234375 243.08474609 45.58234375 243.08474609 45.15625 244.19140625 C44.05842691 246.85807787 42.82613419 249.37822274 41.5 251.9375 C40.10484227 254.68320286 38.94070278 257.18530381 38 260.125 C36.60396163 264.13861031 34.34349432 267.47581389 32 271 C27.86281109 269.20953589 26.33679861 266.83902629 24 263 C20.18084612 264.50038188 18.50053617 266.83265418 16 270 C15.34 270 14.68 270 14 270 C13.835 270.70125 13.67 271.4025 13.5 272.125 C11.5877119 275.79021885 9.1404233 277.36307337 5.77734375 279.66796875 C3.86732953 280.89240079 3.86732953 280.89240079 3 283 C0.890625 284.10546875 0.890625 284.10546875 -1.75 285.1875 C-2.61109375 285.55230469 -3.4721875 285.91710937 -4.359375 286.29296875 C-7.44170927 287.11826831 -9.0155262 287.12714117 -12 286 C-13.80078125 283.93359375 -13.80078125 283.93359375 -15.3125 281.4375 C-15.82425781 280.61121094 -16.33601562 279.78492188 -16.86328125 278.93359375 C-17.23839844 278.29550781 -17.61351562 277.65742187 -18 277 C-19.670625 277.4640625 -19.670625 277.4640625 -21.375 277.9375 C-26.11194234 279.00833155 -30.73070629 279.24437169 -35.5625 279.4375 C-48.39887646 279.99276649 -60.59873126 282.69758169 -73 286 C-73.98097656 286.2475 -74.96195313 286.495 -75.97265625 286.75 C-77.40931641 287.12125 -77.40931641 287.12125 -78.875 287.5 C-79.71804688 287.7165625 -80.56109375 287.933125 -81.4296875 288.15625 C-84.11683694 288.9683487 -84.11683694 288.9683487 -86.93359375 290.47265625 C-89.9943531 291.99718734 -92.90740915 292.98810724 -96.1875 293.9375 C-105.4928554 296.72277645 -114.3666954 300.04644356 -123.17578125 304.14453125 C-126.50051161 305.15160725 -128.65664596 304.80497298 -132 304 C-132.625 302.1875 -132.625 302.1875 -133 300 C-132.34 299.01 -131.68 298.02 -131 297 C-130.34 297 -129.68 297 -129 297 C-128.77183594 296.41605469 -128.54367187 295.83210938 -128.30859375 295.23046875 C-126.65012526 292.40364634 -124.76765477 291.1437428 -122.0625 289.3125 C-120.74958984 288.40951172 -120.74958984 288.40951172 -119.41015625 287.48828125 C-117 286 -117 286 -114 285 C-112.80457321 283.12461154 -112.80457321 283.12461154 -111.75 280.9375 C-110.453125 278.7578125 -110.453125 278.7578125 -109 277 C-104.95580918 276.20560538 -102.99991119 276.37505551 -99.5 278.5625 C-95.86267808 280.6539601 -94.0332125 280.0578918 -90 279 C-84.80142422 276.80329542 -79.98338404 274.02099989 -75.1875 271.0625 C-61.28129361 262.64043134 -49.22882882 258.87068558 -33 261 C-33 260.01 -33 259.02 -33 258 C-33.86625 257.62875 -33.86625 257.62875 -34.75 257.25 C-37.34908658 255.80606301 -39.07836838 254.26478013 -41 252 C-41 251.01 -41 250.02 -41 249 C-41.639375 248.731875 -42.27875 248.46375 -42.9375 248.1875 C-45 247 -45 247 -46 244 C-47.3233032 243.31363942 -48.65787137 242.64877805 -50 242 C-51.4921875 240.4140625 -51.4921875 240.4140625 -52.875 238.625 C-55.57068828 235.33856895 -58.40460123 233.29493539 -62 231 C-63.66666667 229.33333333 -65.33333333 227.66666667 -67 226 C-68.99371825 224.65729179 -70.9934562 223.32346506 -73 222 C-74.33333333 220.66666667 -75.66666667 219.33333333 -77 218 C-77.9075 217.46375 -78.815 216.9275 -79.75 216.375 C-80.4925 215.92125 -81.235 215.4675 -82 215 C-82 214.34 -82 213.68 -82 213 C-82.99 212.67 -83.98 212.34 -85 212 C-85.75 210.0625 -85.75 210.0625 -86 208 C-85 206 -85 206 -83.203125 205.26171875 C-80.43897819 204.93335379 -79.23223786 205.5843998 -76.75 206.8125 C-71.38528425 209.1861261 -66.25344938 209.70136274 -60.44628906 209.8762207 C-58.44140625 210.01953125 -58.44140625 210.01953125 -55 211 C-53.0925699 214.36034019 -52.16103604 217.42487129 -51.125 221.125 C-47.57652781 230.19331783 -35.37651262 237.07516111 -27.7109375 242.72265625 C-26.19190731 243.85672674 -24.71716842 245.04958948 -23.25 246.25 C-21.21043207 247.83633061 -19.31578742 248.89075728 -17 250 C-16.31164062 249.20335937 -16.31164062 249.20335937 -15.609375 248.390625 C-10.33191489 242.31489362 -10.33191489 242.31489362 -7.5625 239.6875 C-5.66029598 238.01641903 -5.66029598 238.01641903 -6 235 C-6.80050781 234.79117188 -7.60101562 234.58234375 -8.42578125 234.3671875 C-11 233 -11 233 -11.85546875 230.3203125 C-11.96503906 229.26585937 -12.07460938 228.21140625 -12.1875 227.125 C-12.73234229 221.77505823 -12.73234229 221.77505823 -15 217 C-16.68493677 215.82971298 -16.68493677 215.82971298 -18.5625 214.875 C-20.89060224 213.28876682 -21.84971861 212.39731928 -22.85546875 209.73828125 C-23.77599534 203.78675782 -22.63401445 200.2310935 -19.12890625 195.3984375 C-18.75636719 194.93695312 -18.38382813 194.47546875 -18 194 C-13.13849961 194.47661768 -10.09735975 195.41219384 -6 198 C-4.33666166 198.34956322 -2.66924096 198.67980709 -1 199 C1.2328255 199.65430784 3.46173821 200.3220524 5.6875 201 C11.52409436 202.67627476 16.94109891 203.77207896 23 204 C23.96679688 204.0515625 24.93359375 204.103125 25.9296875 204.15625 C35.71503356 204.45503919 44.65126036 202.8784203 52 196 C55.76352597 191.5244556 57.43873165 186.77776238 58 181 C57.67 180.01 57.34 179.02 57 178 C53.35392133 178.60269188 49.70815529 179.20725255 46.0625 179.8125 C44.97179199 179.99337158 43.88108398 180.17424316 42.75732422 180.3605957 C37.07752677 181.30639421 31.40373941 182.27491097 25.73852539 183.30444336 C8.76784759 186.38021943 8.76784759 186.38021943 1.12890625 185.55078125 C-5.80070321 184.87729462 -12.73098459 184.65748312 -19.6875 184.4375 C-21.61625977 184.37272461 -21.61625977 184.37272461 -23.58398438 184.30664062 C-26.72257494 184.20163202 -29.86123004 184.09947595 -33 184 C-33.66 182.68 -34.32 181.36 -35 180 C-34.34 179.67 -33.68 179.34 -33 179 C-33.63808594 178.69707031 -34.27617188 178.39414062 -34.93359375 178.08203125 C-35.75988281 177.66308594 -36.58617187 177.24414062 -37.4375 176.8125 C-38.26121094 176.40644531 -39.08492187 176.00039063 -39.93359375 175.58203125 C-42 174 -42 174 -42.75 171.46875 C-42.8325 170.6540625 -42.915 169.839375 -43 169 C-43.32483418 167.66457061 -43.6550855 166.33038449 -44 165 C-41.412296 163.706148 -40.6495155 164.18719341 -37.9375 165.0625 C-34.3524268 166.30547883 -31.4798523 167.88963595 -28.375 170.0625 C-22.42274056 174.22701485 -17.22329245 175.30219897 -10 175 C-7.09115617 174.48540654 -4.24045623 173.77670634 -1.375 173.0625 C6.09939937 171.2971166 13.31876311 170.36478059 21 170 C27.32508117 169.59100979 33.19140814 168.57283331 39.3203125 166.95703125 C44.09359787 165.71557168 48.88884035 164.57626449 53.6875 163.4375 C54.56639893 163.22770508 55.44529785 163.01791016 56.35083008 162.80175781 C61.23708195 161.63930458 66.12690459 160.52652471 71.04589844 159.51049805 C73.92234521 158.7590425 76.42186374 157.45433328 79 156 C78.73323796 154.01508358 78.73323796 154.01508358 78 152 C77.01 151.67 76.02 151.34 75 151 C71.06591926 145.34986624 67.6005734 138.98996544 68 132 C67.01 134.97 67.01 134.97 66 138 C62.47129473 135.64752982 62.45001102 134.98216742 61.53515625 131.01171875 C61.17429932 129.4961438 61.17429932 129.4961438 60.80615234 127.94995117 C60.56074707 126.87334229 60.3153418 125.7967334 60.0625 124.6875 C59.53763283 122.48899061 59.01030878 120.29106624 58.48046875 118.09375 C58.22700684 117.03671875 57.97354492 115.9796875 57.71240234 114.890625 C55.68808705 106.67681654 52.9479608 98.73514464 50 90.8125 C48.90497768 87.73274973 47.94461808 84.6290474 47 81.5 C45.79586314 77.51276084 44.51912504 73.58938314 43.0625 69.6875 C40.4067979 62.55625212 38.2268549 55.27378423 36 48 C31.35008359 60.82417422 34.5296317 75.70224483 40.125 87.8125 C40.56328125 88.77800781 41.0015625 89.74351562 41.453125 90.73828125 C42.54636823 93.04347845 43.66907115 95.29023992 44.859375 97.54296875 C49.42142159 106.37948626 52.43560111 115.24524757 54.9375 124.875 C55.23188965 126.00357422 55.5262793 127.13214844 55.82958984 128.29492188 C58.28910835 138.22641381 59.16734081 147.79221043 59 158 C58.01 157.67 57.02 157.34 56 157 C54.91590304 154.32771617 54.02174149 151.75073458 53.1875 149 C52.66408344 147.35504719 52.13930952 145.71052575 51.61328125 144.06640625 C51.34725098 143.22480957 51.0812207 142.38321289 50.80712891 141.51611328 C49.56161883 137.63340705 48.22777439 133.78392186 46.875 129.9375 C46.53118286 128.94073242 46.53118286 128.94073242 46.18041992 127.92382812 C39.48494665 108.86583682 29.71977297 90.28175733 20.05273438 72.56762695 C14.8158304 62.95501599 10.39489299 53.01995918 6 43 C5.30372182 41.42433047 4.60711873 39.84880447 3.91015625 38.2734375 C3.27292204 36.82835219 2.63617622 35.38305138 2 33.9375 C1.70923584 33.27693604 1.41847168 32.61637207 1.11889648 31.93579102 C-0.02804265 29.31029698 -1.09329683 26.7201095 -2 24 C-4.91442075 41.44714041 1.76086637 58.22015255 8.75 73.9375 C10 77 10 77 10 80 C10.66 80 11.32 80 12 80 C12.42410156 80.87140625 12.84820313 81.7428125 13.28515625 82.640625 C13.87653152 83.8442776 14.46906676 85.0473607 15.0625 86.25 C15.37251953 86.8788208 15.68253906 87.5076416 16.00195312 88.15551758 C18.66387776 93.48137534 21.64542726 98.53010937 24.8125 103.57421875 C26 106 26 106 25 109 C24.34 109 23.68 109 23 109 C19 104.52941176 19 104.52941176 19 102 C18.01 101.67 17.02 101.34 16 101 C16 100.01 16 99.02 16 98 C15.01 97.67 14.02 97.34 13 97 C13 96.01 13 95.02 13 94 C12.01 93.67 11.02 93.34 10 93 C5.50232719 86.91708186 2.2688822 79.79811785 -1 73 C0.22554413 93.83425024 15.66464316 112.46775571 28.42578125 127.94140625 C30 130 30 130 30 132 C30.99 132.33 31.98 132.66 33 133 C33.33 133.99 33.66 134.98 34 136 C34.433125 136.433125 34.86625 136.86625 35.3125 137.3125 C38.45810703 140.45810703 41 143.47387223 41 148 C38 148 38 148 35.75 145.875 C34.8425 144.92625 33.935 143.9775 33 143 C30.14279734 140.44390769 27.21491477 137.96980039 24.21875 135.578125 C22.7802045 134.42457436 21.38560611 133.21662975 20 132 C20 131.34 20 130.68 20 130 C19.278125 129.731875 18.55625 129.46375 17.8125 129.1875 C12.48402257 126.93769842 9.02839763 124.1220813 5 120 C2.36230881 117.63296742 -0.31438773 115.31242545 -3 113 C-3.33 113.66 -3.66 114.32 -4 115 C-3.01 115.33 -2.02 115.66 -1 116 C0.60546875 117.77734375 0.60546875 117.77734375 2.1875 119.9375 C2.71730469 120.64777344 3.24710938 121.35804688 3.79296875 122.08984375 C5 124 5 124 5 126 C3.35 125.67 1.7 125.34 0 125 C0 124.34 0 123.68 0 123 C-0.66 123 -1.32 123 -2 123 C-3.625 121.625 -3.625 121.625 -5 120 C-5 119.34 -5 118.68 -5 118 C-5.66 118 -6.32 118 -7 118 C-9.54455122 114.80543881 -11.73290334 111.40225748 -12.5 107.375 C-13.27023387 103.71638912 -15.51012431 101.74524755 -18 99 C-18.33 99.66 -18.66 100.32 -19 101 C-17.61571005 104.7182672 -15.63861058 108.15612174 -13.25 111.3125 C-12 113 -12 113 -12 116 C-10.515 116.495 -10.515 116.495 -9 117 C-7.80371011 118.69474401 -6.6105514 120.39188585 -5.44140625 122.10546875 C-3.5518835 124.58898781 -1.38684532 126.43884215 1.03857422 128.38500977 C2.95351895 129.96172863 4.76898509 131.61368877 6.59765625 133.2890625 C11.10781096 137.24524748 15.9876504 140.30247881 21.125 143.375 C22.97974884 144.50294951 24.8339138 145.63185967 26.6875 146.76171875 C27.58855469 147.30876465 28.48960937 147.85581055 29.41796875 148.41943359 C33.02024318 150.62453237 36.57860626 152.89390319 40.125 155.1875 C41.20007813 155.88230469 42.27515625 156.57710937 43.3828125 157.29296875 C45.26183747 158.51854175 47.13339312 159.75559541 49 161 C48.01 161.66 47.02 162.32 46 163 C43.44280435 162.37035368 41.14163717 161.66105967 38.6875 160.75 C38.03587891 160.51925781 37.38425781 160.28851562 36.71289062 160.05078125 C34.80580796 159.3749982 32.90284256 158.68763158 31 158 C29.96488281 157.65582031 28.92976562 157.31164062 27.86328125 156.95703125 C12.43458724 151.80010078 -4.62426416 142.85978342 -14 129 C-14 128.34 -14 127.68 -14 127 C-14.66 127 -15.32 127 -16 127 C-24.08800588 116.70617433 -28.03301025 103.11647256 -28.25 90.1875 C-28.27578125 89.25292969 -28.3015625 88.31835938 -28.328125 87.35546875 C-28.21984375 86.57816406 -28.1115625 85.80085937 -28 85 C-27.01 84.34 -26.02 83.68 -25 83 C-13.76271186 90.71186441 -13.76271186 90.71186441 -12 96 C-11.34 96.33 -10.68 96.66 -10 97 C-9.34 97.33 -8.68 97.66 -8 98 C-7.67 98.99 -7.34 99.98 -7 101 C-6.0409375 101.4640625 -6.0409375 101.4640625 -5.0625 101.9375 C-2.54531085 103.2342338 -2.03113052 104.4221737 -1 107 C-0.34 107 0.32 107 1 107 C0.49210938 106.15179687 -0.01578125 105.30359375 -0.5390625 104.4296875 C-6.8862461 93.67723044 -13.15387071 82.51531804 -15 70 C-15.309375 68.0509375 -15.309375 68.0509375 -15.625 66.0625 C-17.6912796 44.06044871 -15.57414049 18.63000866 -1 1 C-0.67 0.67 -0.34 0.34 0 0 Z " fill="#F88BA0" transform="translate(740,522)"/>
<path d="M0 0 C0.70078445 2.55951745 1.38585196 5.12159702 2.0625 7.6875 C2.26166016 8.40873047 2.46082031 9.12996094 2.66601562 9.87304688 C3.72033808 13.92386473 4.29133534 16.8823458 3 21 C1.9378125 21.29132812 0.875625 21.58265625 -0.21875 21.8828125 C-11.56491926 25.11959981 -11.56491926 25.11959981 -21 32 C-21.57621094 32.53882813 -22.15242187 33.07765625 -22.74609375 33.6328125 C-49.81520101 61.48565784 -54.41564463 117.55415164 -63.08007812 153.56329346 C-65.35184537 163.00015119 -67.6323252 172.43490834 -69.91208076 181.86983871 C-70.70298582 185.1461906 -71.49181459 188.4230367 -72.28025818 191.69998169 C-72.75964341 193.68817878 -73.23905766 195.67636887 -73.71850586 197.66455078 C-73.93611069 198.57133072 -74.15371552 199.47811066 -74.37791443 200.41236877 C-74.57808167 201.241241 -74.7782489 202.07011322 -74.98448181 202.92410278 C-75.24405119 204.00279223 -75.24405119 204.00279223 -75.5088644 205.10327339 C-75.93657065 206.7550409 -76.46043828 208.38131483 -77 210 C-83.93 210 -90.86 210 -98 210 C-105.59 166.44 -113.18 122.88 -121 78 C-122.48108467 80.96216933 -123.3653247 82.98201498 -124.10986328 86.08056641 C-124.40171509 87.2770002 -124.40171509 87.2770002 -124.69946289 88.49760437 C-124.90434326 89.35691055 -125.10922363 90.21621674 -125.3203125 91.1015625 C-125.77326224 92.96028748 -126.2265638 94.81892676 -126.68017578 96.67749023 C-126.91577209 97.64903046 -127.15136841 98.62057068 -127.394104 99.62155151 C-148.16176081 184.96144631 -148.16176081 184.96144631 -176 205 C-184.31343586 209.83916416 -193.09303894 214.61918507 -203 214 C-205.54322809 207.06392339 -206.94915607 200.30645606 -208 193 C-207.32195313 192.85304688 -206.64390625 192.70609375 -205.9453125 192.5546875 C-192.89012861 189.40842435 -184.54744474 183.17168507 -177.04296875 172.1171875 C-152.62758542 132.14723057 -146.40909458 79.08157162 -136 34 C-138.69927274 34.44465496 -141.39670259 34.89766581 -144.09375 35.35546875 C-145.22828613 35.54103333 -145.22828613 35.54103333 -146.38574219 35.73034668 C-158.02980755 37.72656199 -169.99661032 42.52381733 -177.4375 52.0625 C-183.45344165 60.88698899 -183.58916957 69.54828645 -181.66796875 79.84765625 C-180.80820366 83.90514411 -179.90988987 87.95348792 -179 92 C-181.95619219 93.1721449 -184.91528789 94.33677476 -187.875 95.5 C-188.71675781 95.83386719 -189.55851563 96.16773438 -190.42578125 96.51171875 C-191.23144531 96.82753906 -192.03710938 97.14335938 -192.8671875 97.46875 C-193.61081543 97.76201172 -194.35444336 98.05527344 -195.12060547 98.35742188 C-197 99 -197 99 -199 99 C-205.6496937 82.80723443 -209.1618634 67.0725313 -203 50 C-195.80346202 33.75327033 -183.05855875 23.82014111 -166.8203125 17.28125 C-154.06731545 12.76667553 -140.4850458 10.79353694 -127 10.875 C-126.21834473 10.87693359 -125.43668945 10.87886719 -124.63134766 10.88085938 C-119.35676308 10.9204435 -114.22392807 11.22608473 -109 12 C-106.98372857 18.35014522 -105.93113539 24.77756865 -104.86108398 31.34521484 C-104.65757324 32.57358063 -104.4540625 33.80194641 -104.24438477 35.0675354 C-103.80444561 37.72615423 -103.3659737 40.38496574 -102.92999077 43.04423141 C-102.24093212 47.24642898 -101.54562114 51.44757737 -100.84938049 55.64859009 C-99.37393918 64.55660062 -97.9053869 73.46574202 -96.4375 82.375 C-94.84923168 92.01471798 -93.25977359 101.65423086 -91.66243988 111.2924515 C-90.96997626 115.47219475 -90.28147513 119.65256591 -89.59596431 123.83345485 C-89.07031757 127.03321142 -88.53949859 130.23211062 -88.00952148 133.43115234 C-87.81989334 134.59475281 -87.6302652 135.75835327 -87.43489075 136.95721436 C-87.17211838 138.53437729 -87.17211838 138.53437729 -86.90403748 140.1434021 C-86.75269568 141.0625559 -86.60135389 141.98170971 -86.44542599 142.92871666 C-86.20012918 144.98075051 -86.20012918 144.98075051 -85 146 C-84.80922882 145.22723724 -84.61845764 144.45447449 -84.42190552 143.65829468 C-82.58285398 136.21821967 -80.73177899 128.7812725 -78.86854744 121.34721947 C-77.91203254 117.52920725 -76.95951962 113.71030793 -76.01757812 109.88867188 C-72.06860361 93.88008697 -67.92092717 78.00783724 -62.69140625 62.36328125 C-62.28499908 61.14607391 -61.87859192 59.92886658 -61.45986938 58.67477417 C-58.3765911 49.66966286 -54.77671349 41.22879215 -50 33 C-49.42765625 31.98421875 -48.8553125 30.9684375 -48.265625 29.921875 C-38.82455254 14.0712671 -25.37283118 5.85476345 -8 1 C-5.17538669 0.35185927 -2.90553995 0 0 0 Z " fill="#FE8EA3" transform="translate(1029,777)"/>
<path d="M0 0 C2.01165445 0.00561524 4.02331308 0.00987617 6.03497314 0.01286316 C11.25612293 0.02416052 16.47701076 0.05349201 21.69805908 0.0869751 C27.05518046 0.11800742 32.41234535 0.13143837 37.76953125 0.14648438 C48.22669442 0.17838081 58.68359666 0.23101953 69.140625 0.29296875 C67.160625 7.55296875 65.180625 14.81296875 63.140625 22.29296875 C44.660625 22.62296875 26.180625 22.95296875 7.140625 23.29296875 C2.190625 43.75296875 -2.759375 64.21296875 -7.859375 85.29296875 C6.000625 85.62296875 19.860625 85.95296875 34.140625 86.29296875 C32.140625 97.29296875 32.140625 97.29296875 29.140625 108.29296875 C14.620625 108.29296875 0.100625 108.29296875 -14.859375 108.29296875 C-15.189375 110.93296875 -15.519375 113.57296875 -15.859375 116.29296875 C-16.5786044 118.974638 -17.33370015 121.57802933 -18.1953125 124.2109375 C-18.54774017 125.30798004 -18.54774017 125.30798004 -18.9072876 126.42718506 C-19.67107002 128.78239395 -20.449965 131.13205346 -21.234375 133.48046875 C-21.50159363 134.28332306 -21.76881226 135.08617737 -22.04412842 135.9133606 C-30.26203326 160.41090743 -41.0067562 185.02841927 -64.921875 197.66796875 C-71.55650402 200.80619944 -77.52680846 202.42049165 -84.859375 202.29296875 C-85.53341784 199.73220778 -86.198789 197.16970292 -86.859375 194.60546875 C-87.05015625 193.88423828 -87.2409375 193.16300781 -87.4375 192.41992188 C-88.40802928 188.62445914 -89.10892739 185.24681436 -88.859375 181.29296875 C-88.03695313 181.08542969 -87.21453125 180.87789062 -86.3671875 180.6640625 C-72.25475804 176.76929271 -64.13478779 170.22246858 -56.85205078 157.53857422 C-48.27971765 142.04764192 -42.96872218 125.16929731 -37.859375 108.29296875 C-44.459375 108.29296875 -51.059375 108.29296875 -57.859375 108.29296875 C-56.59376919 100.7966882 -54.94795148 93.60298644 -52.859375 86.29296875 C-45.929375 86.29296875 -38.999375 86.29296875 -31.859375 86.29296875 C-31.30636719 83.61171875 -30.75335938 80.93046875 -30.18359375 78.16796875 C-28.07852902 68.09611658 -25.73960671 58.08530155 -23.34008789 48.08007812 C-22.65924695 45.24029729 -21.98269332 42.39951793 -21.30664062 39.55859375 C-20.87264024 37.74082705 -20.43840474 35.92311646 -20.00390625 34.10546875 C-19.80287796 33.26185791 -19.60184967 32.41824707 -19.39472961 31.54907227 C-19.20750839 30.76975342 -19.02028717 29.99043457 -18.82739258 29.1875 C-18.66402908 28.50534424 -18.50066559 27.82318848 -18.33235168 27.12036133 C-17.91080124 25.49165917 -17.39138773 23.88900695 -16.859375 22.29296875 C-39.45739449 24.92725215 -39.45739449 24.92725215 -57.6796875 37.46875 C-63.93418874 46.4577071 -64.99876634 55.5540799 -63.859375 66.29296875 C-62.96529641 70.76444939 -61.49054567 75.04027379 -59.859375 79.29296875 C-77.47639628 87.29296875 -77.47639628 87.29296875 -80.859375 87.29296875 C-81.84616398 84.44123913 -82.82394318 81.58692533 -83.796875 78.73046875 C-84.07466797 77.93060547 -84.35246094 77.13074219 -84.63867188 76.30664062 C-89.41704714 62.20179797 -88.77536176 48.33037064 -82.50170898 34.72387695 C-75.31960601 20.18871534 -63.61165402 10.61332168 -48.39558792 5.2474947 C-32.67110503 0.1991169 -16.36680083 -0.13707978 0 0 Z " fill="#FE8EA3" transform="translate(382.859375,788.70703125)"/>
<path d="M0 0 C0.99 0.33 1.98 0.66 3 1 C4.09612453 3.59139805 4.98388573 6.07181536 5.8125 8.75 C6.06894287 9.5455127 6.32538574 10.34102539 6.58959961 11.16064453 C8.84226181 18.24475564 10.81916568 25.40467561 12.81079102 32.56542969 C14.72050084 39.31210497 17.09988254 45.61133544 20 52 C20.67462582 53.66346092 21.3436339 55.32924994 22 57 C22.18175781 55.9378125 22.36351562 54.875625 22.55078125 53.78125 C24.74146585 41.30290973 27.85524591 32.64861979 35 22 C37.29086807 22.91634723 38.71908582 23.60634434 40.16796875 25.63671875 C41.55658583 29.5809128 42.02156294 33.70676676 42.59179688 37.83398438 C43.68623458 44.79102406 46.00637276 51.31060918 48.29690552 57.94540405 C50.21579694 63.55282472 52.02490993 69.19780386 53.85717773 74.83398438 C54.32756452 76.27852281 54.7995715 77.72253465 55.27319336 79.16601562 C63.8719642 105.37968672 63.8719642 105.37968672 65.25 117.4375 C65.39953125 118.69433594 65.5490625 119.95117188 65.703125 121.24609375 C65.80109375 122.15488281 65.8990625 123.06367187 66 124 C66.66 124 67.32 124 68 124 C69.3271261 127.9813783 69.06915913 131.85045227 69 136 C68.67 134.68 68.34 133.36 68 132 C67.01 134.97 67.01 134.97 66 138 C62.47129473 135.64752982 62.45001102 134.98216742 61.53515625 131.01171875 C61.17429932 129.4961438 61.17429932 129.4961438 60.80615234 127.94995117 C60.56074707 126.87334229 60.3153418 125.7967334 60.0625 124.6875 C59.53763283 122.48899061 59.01030878 120.29106624 58.48046875 118.09375 C58.10027588 116.50820313 58.10027588 116.50820313 57.71240234 114.890625 C55.68808705 106.67681654 52.9479608 98.73514464 50 90.8125 C48.90497768 87.73274973 47.94461808 84.6290474 47 81.5 C45.79586314 77.51276084 44.51912504 73.58938314 43.0625 69.6875 C40.4067979 62.55625212 38.2268549 55.27378423 36 48 C31.35008359 60.82417422 34.5296317 75.70224483 40.125 87.8125 C40.56328125 88.77800781 41.0015625 89.74351562 41.453125 90.73828125 C42.54636823 93.04347845 43.66907115 95.29023992 44.859375 97.54296875 C49.42142159 106.37948626 52.43560111 115.24524757 54.9375 124.875 C55.23188965 126.00357422 55.5262793 127.13214844 55.82958984 128.29492188 C58.28910835 138.22641381 59.16734081 147.79221043 59 158 C58.01 157.67 57.02 157.34 56 157 C54.91590304 154.32771617 54.02174149 151.75073458 53.1875 149 C52.66408344 147.35504719 52.13930952 145.71052575 51.61328125 144.06640625 C51.34725098 143.22480957 51.0812207 142.38321289 50.80712891 141.51611328 C49.56161883 137.63340705 48.22777439 133.78392186 46.875 129.9375 C46.64578857 129.27298828 46.41657715 128.60847656 46.18041992 127.92382812 C39.48494665 108.86583682 29.71977297 90.28175733 20.05273438 72.56762695 C14.8158304 62.95501599 10.39489299 53.01995918 6 43 C5.30372182 41.42433047 4.60711873 39.84880447 3.91015625 38.2734375 C3.27292204 36.82835219 2.63617622 35.38305138 2 33.9375 C1.70923584 33.27693604 1.41847168 32.61637207 1.11889648 31.93579102 C-0.02804265 29.31029698 -1.09329683 26.7201095 -2 24 C-4.91442075 41.44714041 1.76086637 58.22015255 8.75 73.9375 C10 77 10 77 10 80 C10.66 80 11.32 80 12 80 C12.42410156 80.87140625 12.84820313 81.7428125 13.28515625 82.640625 C13.87653152 83.8442776 14.46906676 85.0473607 15.0625 86.25 C15.37251953 86.8788208 15.68253906 87.5076416 16.00195312 88.15551758 C18.66387776 93.48137534 21.64542726 98.53010937 24.8125 103.57421875 C26 106 26 106 25 109 C24.34 109 23.68 109 23 109 C19 104.52941176 19 104.52941176 19 102 C18.01 101.67 17.02 101.34 16 101 C16 100.01 16 99.02 16 98 C15.01 97.67 14.02 97.34 13 97 C13 96.01 13 95.02 13 94 C12.01 93.67 11.02 93.34 10 93 C5.50232719 86.91708186 2.2688822 79.79811785 -1 73 C0.22554413 93.83425024 15.66464316 112.46775571 28.42578125 127.94140625 C30 130 30 130 30 132 C30.99 132.33 31.98 132.66 33 133 C33.33 133.99 33.66 134.98 34 136 C34.433125 136.433125 34.86625 136.86625 35.3125 137.3125 C38.45810703 140.45810703 41 143.47387223 41 148 C38 148 38 148 35.75 145.875 C34.8425 144.92625 33.935 143.9775 33 143 C30.14279734 140.44390769 27.21491477 137.96980039 24.21875 135.578125 C22.7802045 134.42457436 21.38560611 133.21662975 20 132 C20 131.34 20 130.68 20 130 C18.9171875 129.5978125 18.9171875 129.5978125 17.8125 129.1875 C12.48402257 126.93769842 9.02839763 124.1220813 5 120 C2.36230881 117.63296742 -0.31438773 115.31242545 -3 113 C-3.33 113.66 -3.66 114.32 -4 115 C-2.515 115.495 -2.515 115.495 -1 116 C0.60546875 117.77734375 0.60546875 117.77734375 2.1875 119.9375 C2.71730469 120.64777344 3.24710938 121.35804688 3.79296875 122.08984375 C5 124 5 124 5 126 C3.35 125.67 1.7 125.34 0 125 C0 124.34 0 123.68 0 123 C-0.66 123 -1.32 123 -2 123 C-3.625 121.625 -3.625 121.625 -5 120 C-5 119.34 -5 118.68 -5 118 C-5.66 118 -6.32 118 -7 118 C-9.54455122 114.80543881 -11.73290334 111.40225748 -12.5 107.375 C-13.27023387 103.71638912 -15.51012431 101.74524755 -18 99 C-18.495 99.99 -18.495 99.99 -19 101 C-17.61571005 104.7182672 -15.63861058 108.15612174 -13.25 111.3125 C-12 113 -12 113 -12 116 C-10.515 116.495 -10.515 116.495 -9 117 C-7.80371011 118.69474401 -6.6105514 120.39188585 -5.44140625 122.10546875 C-3.5518835 124.58898781 -1.38684532 126.43884215 1.03857422 128.38500977 C2.95351895 129.96172863 4.76898509 131.61368877 6.59765625 133.2890625 C11.10781096 137.24524748 15.9876504 140.30247881 21.125 143.375 C22.97974884 144.50294951 24.8339138 145.63185967 26.6875 146.76171875 C27.58855469 147.30876465 28.48960937 147.85581055 29.41796875 148.41943359 C33.02024318 150.62453237 36.57860626 152.89390319 40.125 155.1875 C41.20007813 155.88230469 42.27515625 156.57710937 43.3828125 157.29296875 C45.26183747 158.51854175 47.13339312 159.75559541 49 161 C48.01 161.66 47.02 162.32 46 163 C43.44280435 162.37035368 41.14163717 161.66105967 38.6875 160.75 C38.03587891 160.51925781 37.38425781 160.28851562 36.71289062 160.05078125 C34.80580796 159.3749982 32.90284256 158.68763158 31 158 C29.44732422 157.48373047 29.44732422 157.48373047 27.86328125 156.95703125 C12.43458724 151.80010078 -4.62426416 142.85978342 -14 129 C-14 128.34 -14 127.68 -14 127 C-14.66 127 -15.32 127 -16 127 C-24.08800588 116.70617433 -28.03301025 103.11647256 -28.25 90.1875 C-28.27578125 89.25292969 -28.3015625 88.31835938 -28.328125 87.35546875 C-28.21984375 86.57816406 -28.1115625 85.80085937 -28 85 C-26.515 84.01 -26.515 84.01 -25 83 C-13.76271186 90.71186441 -13.76271186 90.71186441 -12 96 C-11.34 96.33 -10.68 96.66 -10 97 C-9.34 97.33 -8.68 97.66 -8 98 C-7.67 98.99 -7.34 99.98 -7 101 C-6.0409375 101.4640625 -6.0409375 101.4640625 -5.0625 101.9375 C-2.54531085 103.2342338 -2.03113052 104.4221737 -1 107 C-0.34 107 0.32 107 1 107 C0.49210938 106.15179687 -0.01578125 105.30359375 -0.5390625 104.4296875 C-6.8862461 93.67723044 -13.15387071 82.51531804 -15 70 C-15.20625 68.700625 -15.4125 67.40125 -15.625 66.0625 C-17.6912796 44.06044871 -15.57414049 18.63000866 -1 1 C-0.67 0.67 -0.34 0.34 0 0 Z " fill="#ED869A" transform="translate(740,522)"/>
<path d="M0 0 C1.875 0.0625 1.875 0.0625 4 1 C5.625 3.875 5.625 3.875 7 7 C7.66 7.99 8.32 8.98 9 10 C10.216875 9.67 11.43375 9.34 12.6875 9 C15.87210604 8.19677787 18.6972843 7.79358027 22 8 C22 12 22 12 19.5625 14.5 C18.716875 15.325 17.87125 16.15 17 17 C16.03807235 18.86843058 16.03807235 18.86843058 16 21 C17.17939922 23.21765724 17.17939922 23.21765724 18.9375 25.25 C19.50339844 25.95640625 20.06929687 26.6628125 20.65234375 27.390625 C21.09707031 27.92171875 21.54179688 28.4528125 22 29 C21.34 30.32 20.68 31.64 20 33 C19.319375 32.54625 18.63875 32.0925 17.9375 31.625 C14.69564814 29.83163514 11.5796559 28.91246131 8 28 C7.68546875 28.5053125 7.3709375 29.010625 7.046875 29.53125 C6.61890625 30.1809375 6.1909375 30.830625 5.75 31.5 C5.12351562 32.47453125 5.12351562 32.47453125 4.484375 33.46875 C3.99453125 33.9740625 3.5046875 34.479375 3 35 C1.68 35 0.36 35 -1 35 C-1.495 31.535 -1.495 31.535 -2 28 C-7.25823083 30.86008443 -12.514941 33.72266159 -17.75 36.625 C-18.46929688 37.02332031 -19.18859375 37.42164063 -19.9296875 37.83203125 C-21.29865335 38.60433463 -22.65839591 39.39324425 -24.0078125 40.19921875 C-28.70526316 43 -28.70526316 43 -32 43 C-32 43.66 -32 44.32 -32 45 C-33.40751221 45.86916887 -34.8264521 46.71985149 -36.25 47.5625 C-37.03890625 48.03816406 -37.8278125 48.51382813 -38.640625 49.00390625 C-41.30844625 50.13022151 -42.34501768 50.0169313 -45 49 C-44.01 48.01 -43.02 47.02 -42 46 C-42.77085937 45.95101562 -43.54171875 45.90203125 -44.3359375 45.8515625 C-45.33882812 45.77679687 -46.34171875 45.70203125 -47.375 45.625 C-48.87160156 45.52058594 -48.87160156 45.52058594 -50.3984375 45.4140625 C-53 45 -53 45 -55 43 C-54.2265625 43.04640625 -53.453125 43.0928125 -52.65625 43.140625 C-45.54672887 43.38699454 -40.97237282 42.82090781 -35 39 C-33.37625067 38.01876075 -31.75117233 37.03971846 -30.125 36.0625 C-29.29226563 35.55589844 -28.45953125 35.04929687 -27.6015625 34.52734375 C-16.48337596 28 -16.48337596 28 -13 28 C-13 27.34 -13 26.68 -13 26 C-9.535 24.02 -9.535 24.02 -6 22 C-9.32086771 19.22999175 -9.32086771 19.22999175 -13 17 C-13 16.01 -13 15.02 -13 14 C-9.04 13.34 -5.08 12.68 -1 12 C-1.020625 10.205625 -1.04125 8.41125 -1.0625 6.5625 C-1.0838122 4.70833878 -1.07226502 2.85287502 -1 1 C-0.67 0.67 -0.34 0.34 0 0 Z " fill="#F2879D" transform="translate(963,655)"/>
<path d="M0 0 C3.81507241 2.02252952 6.17424404 4.72695956 8.5 8.3125 C9.51749109 13.78151463 8.84465258 18.40119334 6.25 23.3125 C1.58023187 28.8902786 -2.67541996 31.68337333 -9.9375 32.375 C-14.25665318 32.24485602 -16.7019205 30.84834139 -20 28 C-23.29409155 24.18578873 -24.67138093 21.2098567 -24.38671875 16.0859375 C-23.44551722 11.00915347 -21.21758146 7.15670238 -17.5 3.625 C-11.70099162 -0.14435545 -6.92425387 -1.12470225 0 0 Z " fill="#FE8EA3" transform="translate(1141,816)"/>
<path d="M0 0 C4.15497118 3.74960814 5.73600384 6.47824406 6.125 12.0625 C5.92074029 18.01267425 3.63797149 22.05493298 -0.4375 26.3125 C-5.49166822 30.17072306 -10.20730937 31.01590862 -16.4375 30.3125 C-20.21176504 29.00602364 -22.09958011 27.67709778 -24.8125 24.75 C-27.22294254 19.65098694 -27.5960725 14.68407615 -25.7421875 9.2890625 C-20.62668601 -0.55505382 -10.17905555 -4.99699091 0 0 Z " fill="#FE8EA3" transform="translate(565.4375,817.6875)"/>
<path d="M0 0 C0.495 0.99 0.495 0.99 1 2 C0.67 2.66 0.34 3.32 0 4 C0.99 4.33 1.98 4.66 3 5 C-7.81081081 13 -7.81081081 13 -13 13 C-13 13.66 -13 14.32 -13 15 C-14.40751221 15.86916887 -15.8264521 16.71985149 -17.25 17.5625 C-18.03890625 18.03816406 -18.8278125 18.51382813 -19.640625 19.00390625 C-22.30844625 20.13022151 -23.34501768 20.0169313 -26 19 C-25.01 18.01 -24.02 17.02 -23 16 C-23.77085937 15.95101562 -24.54171875 15.90203125 -25.3359375 15.8515625 C-26.33882812 15.77679687 -27.34171875 15.70203125 -28.375 15.625 C-29.87160156 15.52058594 -29.87160156 15.52058594 -31.3984375 15.4140625 C-34 15 -34 15 -36 13 C-35.2265625 13.04640625 -34.453125 13.0928125 -33.65625 13.140625 C-26.54356524 13.38710417 -21.97575658 12.81654766 -16 9 C-14.29232611 7.97806391 -12.58396119 6.9572819 -10.875 5.9375 C-10.0396875 5.42832031 -9.204375 4.91914062 -8.34375 4.39453125 C-5.62030704 2.77408269 -2.86248119 1.35591214 0 0 Z " fill="#E58797" transform="translate(944,685)"/>
<path d="M0 0 C1.19109375 0.08314453 1.19109375 0.08314453 2.40625 0.16796875 C4.5 0.8125 4.5 0.8125 5.5625 2.81640625 C5.871875 3.47511719 6.18125 4.13382813 6.5 4.8125 C9.56175236 5.46858979 12.37221384 5.8125 15.5 5.8125 C15.5 6.4725 15.5 7.1325 15.5 7.8125 C12.5 8.8125 12.5 8.8125 9.5 7.8125 C9.5 8.4725 9.5 9.1325 9.5 9.8125 C3.875 11.9375 3.875 11.9375 0.5 10.8125 C1.01032394 7.03610282 1.70766929 5.36527419 4.5 2.8125 C3.06260487 2.78537934 1.62506137 2.76604933 0.1875 2.75 C-0.61300781 2.73839844 -1.41351562 2.72679687 -2.23828125 2.71484375 C-4.66861334 2.71592145 -4.66861334 2.71592145 -7.5 3.8125 C-7.17 2.8225 -6.84 1.8325 -6.5 0.8125 C-4.05333494 -0.41083253 -2.70770626 -0.23296823 0 0 Z " fill="#D2758E" transform="translate(896.5,705.1875)"/>
<path d="M0 0 C2 1 2 1 2.6328125 2.7578125 C4.25371002 10.55355774 4.19032148 18.06993814 4 26 C3.01 25.67 2.02 25.34 1 25 C0.05078125 23.0390625 0.05078125 23.0390625 -0.6875 20.625 C-0.93886719 19.83351563 -1.19023438 19.04203125 -1.44921875 18.2265625 C-2 16 -2 16 -2 13 C-1.34 13 -0.68 13 0 13 C1.0161692 8.37078475 0.83796731 4.65537393 0 0 Z " fill="#D37281" transform="translate(795,654)"/>
<path d="M0 0 C0.66 1.32 1.32 2.64 2 4 C2.66 4.33 3.32 4.66 4 5 C5.5183512 8.795878 5.06687163 12.9877022 5 17 C4.67 15.68 4.34 14.36 4 13 C3.34 14.98 2.68 16.96 2 19 C-1.91586149 16.38942567 -2.00639127 14.50945501 -3 10 C-3.125 7.0625 -3.125 7.0625 -3 5 C-2.34 6.32 -1.68 7.64 -1 9 C-0.67 6.03 -0.34 3.06 0 0 Z " fill="#D07281" transform="translate(804,641)"/>
<path d="M0 0 C0.66 0.33 1.32 0.66 2 1 C1.01 2.485 1.01 2.485 0 4 C1.32 4 2.64 4 4 4 C4 4.66 4 5.32 4 6 C-6.25 11.125 -6.25 11.125 -10 10 C-9.25 7.5625 -9.25 7.5625 -8 5 C-5.875 4.1875 -5.875 4.1875 -4 4 C-4 3.34 -4 2.68 -4 2 C-2.125 0.9375 -2.125 0.9375 0 0 Z " fill="#E27998" transform="translate(954,679)"/>
<path d="M0 0 C0 0.66 0 1.32 0 2 C6.14146947 2.8188626 12.05345725 3.03202087 18.24609375 2.96875 C21.24748615 3.00280835 24.06955408 3.3487898 27 4 C25 6 25 6 22.20263672 6.13525391 C21.04006348 6.08288574 19.87749023 6.03051758 18.6796875 5.9765625 C17.42285156 5.925 16.16601562 5.8734375 14.87109375 5.8203125 C13.53905165 5.75543074 12.2070205 5.69032366 10.875 5.625 C9.53519706 5.56676177 8.19535313 5.50945844 6.85546875 5.453125 C3.56979268 5.31129726 0.28484064 5.15985087 -3 5 C-3.66 3.68 -4.32 2.36 -5 1 C-3 0 -3 0 0 0 Z " fill="#D87382" transform="translate(710,701)"/>
<path d="M0 0 C1.0209375 0.556875 1.0209375 0.556875 2.0625 1.125 C3.39005774 1.48063932 4.72299824 1.81738999 6.0625 2.125 C4.65498779 2.99416887 3.2360479 3.84485149 1.8125 4.6875 C1.02359375 5.16316406 0.2346875 5.63882813 -0.578125 6.12890625 C-3.24594625 7.25522151 -4.28251768 7.1419313 -6.9375 6.125 C-5.9475 5.135 -4.9575 4.145 -3.9375 3.125 C-4.70835937 3.07601562 -5.47921875 3.02703125 -6.2734375 2.9765625 C-7.77777344 2.86441406 -7.77777344 2.86441406 -9.3125 2.75 C-10.80910156 2.64558594 -10.80910156 2.64558594 -12.3359375 2.5390625 C-14.9375 2.125 -14.9375 2.125 -16.9375 0.125 C-16.10605469 0.13660156 -15.27460937 0.14820313 -14.41796875 0.16015625 C-12.78794922 0.17369141 -12.78794922 0.17369141 -11.125 0.1875 C-9.50658203 0.20490234 -9.50658203 0.20490234 -7.85546875 0.22265625 C-0.08296426 -0.03746773 -0.08296426 -0.03746773 0 0 Z " fill="#DF6E93" transform="translate(924.9375,697.875)"/>
<path d="M0 0 C2.625 -0.5 2.625 -0.5 6 0 C8.4263746 2.39358575 10.32197137 5.03667284 12 8 C12 8.66 12 9.32 12 10 C10.35 9.67 8.7 9.34 7 9 C7 8.34 7 7.68 7 7 C6.34 7 5.68 7 5 7 C3.375 5.625 3.375 5.625 2 4 C2 3.34 2 2.68 2 2 C1.34 2 0.68 2 0 2 C0 1.34 0 0.68 0 0 Z " fill="#D67584" transform="translate(733,638)"/>
<path d="M0 0 C3.24271506 0.5590888 4.93057424 1.4132178 7 4 C7 4.66 7 5.32 7 6 C7.99 6.33 8.98 6.66 10 7 C9 10 9 10 7 12 C6.01 12 5.02 12 4 12 C2.34408844 9.0193592 1.60044016 6.34530944 1 3 C0.67 2.01 0.34 1.02 0 0 Z " fill="#CA6E92" transform="translate(726,624)"/>
<path d="M0 0 C2.29851631 1.79883885 2.99544549 2.98536049 3.875 5.8125 C4.02657584 9.67768381 2.95470812 11.71609035 1 15 C-0.5625 13.875 -0.5625 13.875 -2 12 C-1.6875 8.8125 -1.6875 8.8125 -1 6 C-0.34 6 0.32 6 1 6 C0.67 4.02 0.34 2.04 0 0 Z " fill="#D17488" transform="translate(866,652)"/>
<path d="M0 0 C2.0625 0.4375 2.0625 0.4375 4 1 C4.66 3.31 5.32 5.62 6 8 C4.35 6.68 2.7 5.36 1 4 C1.185625 4.9075 1.37125 5.815 1.5625 6.75 C1.95734621 9.68314324 1.94691572 11.2644657 1 14 C-0.32 13.67 -1.64 13.34 -3 13 C-2.34 12.67 -1.68 12.34 -1 12 C-1.01160156 11.21753906 -1.02320313 10.43507813 -1.03515625 9.62890625 C-1.04417969 8.61699219 -1.05320312 7.60507812 -1.0625 6.5625 C-1.07410156 5.55316406 -1.08570313 4.54382813 -1.09765625 3.50390625 C-1 1 -1 1 0 0 Z " fill="#D57D75" transform="translate(963,655)"/>
<path d="M0 0 C2.77862859 3.47328574 4.98463473 7.0412468 7 11 C6.67 11.99 6.34 12.98 6 14 C5.34 14 4.68 14 4 14 C2.7109375 12.46875 2.7109375 12.46875 1.375 10.5 C0.92898438 9.8503125 0.48296875 9.200625 0.0234375 8.53125 C-0.48316406 7.77328125 -0.48316406 7.77328125 -1 7 C-0.34 6.67 0.32 6.34 1 6 C0.67 4.02 0.34 2.04 0 0 Z " fill="#E16991" transform="translate(759,617)"/>
<path d="M0 0 C0 1.32 0 2.64 0 4 C1.4166747 5.7511573 1.4166747 5.7511573 3 7 C2.01 7.495 2.01 7.495 1 8 C-1.4750171 6.88568235 -3.67883419 5.41849022 -6 4 C-6 3.01 -6 2.02 -6 1 C-3 0 -3 0 0 0 Z " fill="#D4697F" transform="translate(956,668)"/>
<path d="M0 0 C0.7940625 0.06703125 1.588125 0.1340625 2.40625 0.203125 C4.5 0.75 4.5 0.75 6.5 3.75 C6.17 4.41 5.84 5.07 5.5 5.75 C4.84 5.42 4.18 5.09 3.5 4.75 C3.83 4.09 4.16 3.43 4.5 2.75 C3.06260487 2.72287934 1.62506137 2.70354933 0.1875 2.6875 C-0.61300781 2.67589844 -1.41351562 2.66429687 -2.23828125 2.65234375 C-4.66861334 2.65342145 -4.66861334 2.65342145 -7.5 3.75 C-7.17 2.76 -6.84 1.77 -6.5 0.75 C-4.04048544 -0.47975728 -2.71743376 -0.26468511 0 0 Z " fill="#C3777D" transform="translate(896.5,705.25)"/>
<path d="M0 0 C0.99 0.33 1.98 0.66 3 1 C2.34 2.98 1.68 4.96 1 7 C-0.65 6.67 -2.3 6.34 -4 6 C-2.25 1.125 -2.25 1.125 0 0 Z " fill="#EC83A9" transform="translate(948,683)"/>
<path d="M0 0 C0.66 0 1.32 0 2 0 C2.33 0.66 2.66 1.32 3 2 C3.66 2 4.32 2 5 2 C5.625 4.3125 5.625 4.3125 6 7 C5.01 8.485 5.01 8.485 4 10 C1.2027092 7.93243723 0.97307727 6.85559629 0.3125 3.3125 C0.209375 2.219375 0.10625 1.12625 0 0 Z " fill="#C57387" transform="translate(807,624)"/>
<path d="M0 0 C0.66 0 1.32 0 2 0 C2 0.66 2 1.32 2 2 C2.99 2 3.98 2 5 2 C4.67 2.99 4.34 3.98 4 5 C4.804375 5.28875 5.60875 5.5775 6.4375 5.875 C9 7 9 7 10 9 C7.03 8.01 4.06 7.02 1 6 C0 1.125 0 1.125 0 0 Z " fill="#DC7888" transform="translate(698,691)"/>
<path d="M0 0 C0.33 0.66 0.66 1.32 1 2 C0.67 2.66 0.34 3.32 0 4 C0.99 4.33 1.98 4.66 3 5 C-0.75 8 -0.75 8 -3 8 C-3 7.01 -3 6.02 -3 5 C-3.99 5 -4.98 5 -6 5 C-6 4.34 -6 3.68 -6 3 C-4.02 2.01 -2.04 1.02 0 0 Z " fill="#D96F85" transform="translate(944,685)"/>
<path d="M0 0 C3.96 0 7.92 0 12 0 C12 0.66 12 1.32 12 2 C3.42857143 3.28571429 3.42857143 3.28571429 0 2 C0 1.34 0 0.68 0 0 Z " fill="#D4748A" transform="translate(742,705)"/>
<path d="M0 0 C0.28875 0.639375 0.5775 1.27875 0.875 1.9375 C1.82823451 4.15206079 1.82823451 4.15206079 4 5 C3.67 7.31 3.34 9.62 3 12 C2.34 12 1.68 12 1 12 C-0.3271261 8.0186217 -0.06915913 4.14954773 0 0 Z " fill="#D07874" transform="translate(804,641)"/>
<path d="M0 0 C2 0 2 0 3.625 1.5 C4.07875 1.995 4.5325 2.49 5 3 C4.67 3.99 4.34 4.98 4 6 C2.68 5.67 1.36 5.34 0 5 C-0.5625 3.0625 -0.5625 3.0625 -1 1 C-0.67 0.67 -0.34 0.34 0 0 Z " fill="#BC6F89" transform="translate(815,668)"/>
<path d="M0 0 C0.66 1.32 1.32 2.64 2 4 C0.68 5.32 -0.64 6.64 -2 8 C-1.67 6.68 -1.34 5.36 -1 4 C-1.99 4.33 -2.98 4.66 -4 5 C-2.25 1.125 -2.25 1.125 0 0 Z " fill="#E28899" transform="translate(813,617)"/>
<path d="M0 0 C0.66 0 1.32 0 2 0 C2.53154742 1.60064843 3.04988353 3.20568874 3.5625 4.8125 C3.85253906 5.70582031 4.14257812 6.59914063 4.44140625 7.51953125 C5 10 5 10 4 13 C3.32404685 11.58774074 2.65959941 10.16997095 2 8.75 C1.62875 7.96109375 1.2575 7.1721875 0.875 6.359375 C0 4 0 4 0 0 Z " fill="#C37380" transform="translate(784,572)"/>
<path d="M0 0 C0.99 0.33 1.98 0.66 3 1 C2.34 2.65 1.68 4.3 1 6 C-0.32 5.67 -1.64 5.34 -3 5 C-2.01 3.35 -1.02 1.7 0 0 Z " fill="#DE8490" transform="translate(939,689)"/>
<path d="M0 0 C2.89932357 2.39509338 3.50168276 4.31245243 4 8 C2.35 8.33 0.7 8.66 -1 9 C-1 8.01 -1 7.02 -1 6 C-0.34 6 0.32 6 1 6 C0.67 4.02 0.34 2.04 0 0 Z " fill="#C5668E" transform="translate(866,652)"/>
<path d="M0 0 C0.99 0.495 0.99 0.495 2 1 C2.8125 4.3125 2.8125 4.3125 3 8 C2.01 9.32 1.02 10.64 0 12 C0 8.04 0 4.08 0 0 Z " fill="#C4657C" transform="translate(830,709)"/>
<path d="M0 0 C2 1.8125 2 1.8125 4 4 C4 4.99 4 5.98 4 7 C3.01 7 2.02 7 1 7 C-0.0625 5.1875 -0.0625 5.1875 -1 3 C-0.67 2.01 -0.34 1.02 0 0 Z " fill="#C27A8C" transform="translate(777,663)"/>
<path d="M0 0 C2.97 0.495 2.97 0.495 6 1 C6.33 2.32 6.66 3.64 7 5 C5.68 4.34 4.36 3.68 3 3 C2.34 3.66 1.68 4.32 1 5 C0.67 3.35 0.34 1.7 0 0 Z " fill="#D97A91" transform="translate(718,618)"/>
<path d="M0 0 C1.258125 -0.04125 2.51625 -0.0825 3.8125 -0.125 C4.52019531 -0.14820313 5.22789062 -0.17140625 5.95703125 -0.1953125 C8 0 8 0 11 2 C10.01 2.66 9.02 3.32 8 4 C5.95703125 3.5390625 5.95703125 3.5390625 3.8125 2.625 C3.09707031 2.32851563 2.38164063 2.03203125 1.64453125 1.7265625 C1.10183594 1.48679687 0.55914063 1.24703125 0 1 C0 0.67 0 0.34 0 0 Z " fill="#DC6D7E" transform="translate(778,681)"/>
<path d="M0 0 C1.98 0 3.96 0 6 0 C5.67 1.65 5.34 3.3 5 5 C4.01 4.67 3.02 4.34 2 4 C2 3.34 2 2.68 2 2 C1.34 2 0.68 2 0 2 C0 1.34 0 0.68 0 0 Z " fill="#DB7E8C" transform="translate(733,638)"/>
<path d="M0 0 C-0.75 1.9375 -0.75 1.9375 -2 4 C-4 4.875 -4 4.875 -6 5 C-6.66 4.34 -7.32 3.68 -8 3 C-2.25 0 -2.25 0 0 0 Z " fill="#CB6882" transform="translate(848,685)"/>
<path d="M0 0 C-6.4 3.07692308 -6.4 3.07692308 -9.4375 2.6875 C-9.953125 2.460625 -10.46875 2.23375 -11 2 C-8.0843098 -0.9156902 -3.79153866 -1.89576933 0 0 Z " fill="#CB7F83" transform="translate(740,806)"/>
<path d="M0 0 C1 2 1 2 0.1875 5 C-1 8 -1 8 -3 10 C-2.25 3.375 -2.25 3.375 0 0 Z " fill="#C16383" transform="translate(778,777)"/>
<path d="M0 0 C2.05078125 0.03255208 4.1015625 0.06510417 6.15234375 0.09765625 C6.15234375 0.75765625 6.15234375 1.41765625 6.15234375 2.09765625 C3.33984375 2.72265625 3.33984375 2.72265625 0.15234375 3.09765625 C-0.83765625 2.43765625 -1.82765625 1.77765625 -2.84765625 1.09765625 C-1.84765625 0.09765625 -1.84765625 0.09765625 0 0 Z " fill="#AA6E8B" transform="translate(673.84765625,731.90234375)"/>
<path d="M0 0 C5.66153846 1.47692308 5.66153846 1.47692308 7.375 4.125 C7.684375 5.053125 7.684375 5.053125 8 6 C4.08597051 4.73058503 2.20927127 3.48832306 0 0 Z " fill="#C55491" transform="translate(739,636)"/>
<path d="M0 0 C2.89932357 2.39509338 3.50168276 4.31245243 4 8 C3.01 8 2.02 8 1 8 C0 2.25 0 2.25 0 0 Z " fill="#A17153" transform="translate(762,623)"/>
<path d="M0 0 C0.33 0 0.66 0 1 0 C1.33 2.31 1.66 4.62 2 7 C1.01 7.33 0.02 7.66 -1 8 C-1.625 5.6875 -1.625 5.6875 -2 3 C-1.34 2.01 -0.68 1.02 0 0 Z " fill="#D1968B" transform="translate(758,616)"/>
<path d="M0 0 C1.32 0.33 2.64 0.66 4 1 C4 2.98 4 4.96 4 7 C1 5 1 5 0.3125 2.375 C0.209375 1.59125 0.10625 0.8075 0 0 Z " fill="#C9787F" transform="translate(760,579)"/>
</svg>
